<?xml version="1.0" encoding="utf-8"?>
<!-- Generator: Adobe Illustrator 19.0.0, SVG Export Plug-In . SVG Version: 6.00 Build 0)  -->
<svg version="1.1" id="Layer_1" xmlns="http://www.w3.org/2000/svg" xmlns:xlink="http://www.w3.org/1999/xlink" x="0px" y="0px"
	 viewBox="-267 625 1000 800" style="enable-background:new -267 625 1000 800;" xml:space="preserve">
<style type="text/css">
	.st0{fill:#FFFFFF;}
</style>
<g id="XMLID_1_">
	<g id="XMLID_57_">
		<path id="XMLID_61_" class="st0" d="M-67,625h-200v600l0,0c0,110.5,89.5,200,200,200h167h-0.3C5.1,1409.1-67,1324.1-67,1225V625z"
			/>
		<path id="XMLID_60_" class="st0" d="M200,625H0v600h-0.3c0,110.5,89.9,200,200.3,200h166h0.3c-94.5-15.9-166.3-100.9-166.3-200
			V625z"/>
		<path id="XMLID_59_" class="st0" d="M533,625v400h200V825C733,714.5,643.5,625,533,625z"/>
		<path id="XMLID_58_" class="st0" d="M466,1425V625H266v600h0.3c0,110.5,89.5,200,200,200l0,0"/>
	</g>
</g>
</svg>
